<svg height="3000pt" preserveAspectRatio="xMidYMid meet" viewBox="0 0 3000 3000" width="3000pt" xmlns="http://www.w3.org/2000/svg"><g transform="matrix(.1 0 0 -.1 0 3000)"><path d="m14595 23696c-46-65-895-1264-1191-1681-145-203-404-570-576-815-1229-1750-2257-3212-2263-3219-5-4-616 317-632 333-10 9 75 102 390 427 470 485 1788 1846 2158 2229 141 146 269 280 285 299l28 34-143 431c-79 237-145 433-147 435s-68-56-147-130c-78-74-381-354-672-624-291-269-943-875-1450-1345-506-470-967-898-1024-950-170-156-269-308-323-495-20-70-23-101-22-255 0-147 4-188 22-255 29-107 100-248 167-333 97-121 147-153 565-362 212-105 389-196 394-200 5-5-128-202-300-446-396-561-444-654-475-915-14-119 0-270 37-397 30-104 106-266 160-341l39-53 2610-1300c1584-788 2647-1312 2705-1332 160-56 273-79 390-79 126-1 201 17 318 74 118 58 198 137 354 352l129 178-139 412-140 412 74 135c217 397 335 744 369 1086l6 62-32 11c-49 17-82 13-132-15-41-22-107-94-107-116 0-4-11-31-24-60s-30-72-37-95c-6-24-16-43-21-43-4 0-8-7-8-16 0-8-11-39-24-67-13-29-27-63-31-77s-16-41-26-60c-11-19-19-38-19-43 0-4-11-25-25-47l-25-39 68-37c141-77 134-71 116-107-8-18-18-39-23-47-4-8-33-63-64-121-127-242-365-593-551-814-34-40-70-84-81-99l-20-27-200 99c-110 54-301 152-425 217-254 132-1281 666-2840 1475-580 301-1187 616-1347 700l-293 152 60 87c313 455 678 975 687 978 6 2 595-289 1309-646 713-358 1299-651 1300-651s-86 265-194 589l-196 588-121 61c-66 34-178 92-250 130-71 37-202 106-290 152-353 184-758 396-892 467l-142 76 18 26c91 130 890 1281 1291 1861 150 217 313 453 363 524l90 130-11 40c-9 32-8 44 3 55s10 22-6 69l-19 56 26 27c20 21 25 34 20 53-3 14-1 34 5 44 9 14 9 27 1 50-8 24-8 33 4 43 8 7 12 20 9 30-4 12-1 21 10 25 9 4 14 13 11 20-3 8 7 27 22 42s26 35 24 44c-3 16 9 38 62 119 16 24 29 46 28 49 0 3 6 13 15 22 8 9 12 21 9 26s8 21 24 37c15 15 27 32 24 39-2 6 14 30 35 54 39 44 43 51 79 132 11 25 32 56 46 69 15 14 38 49 52 78 14 28 32 57 40 64 8 6 14 16 14 21 0 11 51 81 63 86 4 2 7 9 7 16 0 18 27 71 75 146 23 36 52 85 64 110 36 72 55 104 79 135 13 16 41 65 62 109 43 86 65 127 96 173 33 49 53 86 89 159 19 39 44 79 55 89s20 22 20 26c0 5 20 42 45 82 25 41 45 78 45 81 0 4 11 22 25 40s25 37 25 43 8 21 19 34c10 13 32 50 50 82s45 79 61 105c50 80 74 125 88 167 8 22 22 51 31 65 10 14 28 50 40 80 13 30 33 73 46 95 12 22 28 60 35 85s19 64 26 88c18 55 17 68-2 125-21 62-47 63-89 3z"/><path d="m14629 20124c-82-102-73-87-440-716-387-662-369-620-369-858 0-298 93-537 292-746 109-114 178-158 523-334 176-89 498-254 715-365s521-266 675-345 465-237 690-353c607-310 855-437 1210-617 400-204 868-445 1089-562l169-90 19 23c92 120 498 691 498 701 0 5-85 51-189 103-174 87-190 93-196 75-4-11-10-20-16-20-9 0-61-43-87-74-42-47-99-97-108-93-3 1-11-8-17-20-15-28-67-68-67-52 0 6-10-1-22-16-46-59-66-76-71-63-4 11-6 10-6 0-1-7-5-10-11-7-5 3-16-10-24-29-10-24-20-34-29-30-8 3-18 0-22-6-5-8-10-8-20 0s-17 4-31-19c-10-16-22-27-26-24-5 3-18-3-30-14-23-20-27-20-39-1-7 10-9 10-9 0 0-7-5-10-12-6-6 4-17-1-23-10-7-9-25-19-39-22-25-4-26-3-16 18l11 23-20-24c-13-14-21-18-21-10 0 11-3 11-10-1-8-12-12-13-19-2-4 8-12 13-17 13s-14 14-20 32c-7 21-13 27-16 17-4-10-10-5-18 18-12 32-12 32-29 13-17-20-18-18-41 55-14 43-28 73-35 70-7-2-74 186-174 488-90 270-168 496-175 503-11 12-353 194-1716 913-1190 628-1395 736-1530 811l-128 71 70 126c39 70 79 139 89 154 11 14 19 29 19 32s13 25 29 48c16 24 70 106 121 183s103 150 116 163 24 26 24 30 10 18 23 32c12 14 40 50 62 80 45 63 53 73 129 155 88 97 97 108 89 115-5 4-32 20-62 36l-54 29-34-40c-19-22-89-111-155-198s-122-156-125-154c-2 3-68 197-146 433l-143 428z"/><path d="m20613 17596c-29-12-66-32-82-44-17-12-34-22-39-22s-21-15-35-32c-14-18-44-53-66-78-23-25-41-48-41-51s-9-17-21-30-32-45-45-71c-13-27-26-48-29-48-2 0-16 5-30 10-24 9-26 8-20-7 12-31 55-177 60-205 3-15 9-37 14-50s9-26 9-31c0-4 4-32 8-63 5-46 9-53 20-42 41 42 266 469 342 649 57 135 58 139 30 138-13 0-46-11-75-23z"/><path d="m17983 13488c-250-369-646-954-1333-1973-178-264-426-631-550-815-125-184-355-526-512-760l-285-425-102-545c-57-300-131-698-167-884-35-187-62-341-60-343s71 92 153 209l149 213 315 284c172 156 730 658 1238 1115 847 762 1325 1191 1857 1671 109 98 201 180 203 181 2 2-40 131-92 288-53 157-91 286-86 286 16 0 10 44-15 118-21 61-23 74-11 86 20 20 28 58 17 87-7 17-6 32 1 45 6 10-43-31-109-92-157-146-581-527-896-805-139-122-268-236-287-253s-30-24-26-16c5 8 276 397 602 863s593 852 593 857c0 14-322 974-330 983-3 4-124-165-267-375z"/></g></svg>